<svg width="300" xmlns="http://www.w3.org/2000/svg" height="300" id="screenshot-e9597041-7d09-80ff-8006-362dba1683a4" viewBox="0 0 300 300" xmlns:xlink="http://www.w3.org/1999/xlink" fill="none" version="1.1"><style>/* latin */
@font-face {
  font-family: 'Allerta Stencil';
  font-style: normal;
  font-weight: 400;
  font-display: block;
  src: url(http://penpot-frontend:8080/internal/gfonts/font/allertastencil/v22/HTx0L209KT-LmIE9N7OR6eiycOe1_Db2.woff2) format('woff2');
  unicode-range: U+0000-00FF, U+0131, U+0152-0153, U+02BB-02BC, U+02C6, U+02DA, U+02DC, U+0304, U+0308, U+0329, U+2000-206F, U+20AC, U+2122, U+2191, U+2193, U+2212, U+2215, U+FEFF, U+FFFD;
}
</style><g id="shape-e9597041-7d09-80ff-8006-362dba1683a4"><defs><clipPath id="frame-clip-e9597041-7d09-80ff-8006-362dba1683a4-render-1" class="frame-clip frame-clip-def"><rect rx="0" ry="0" x="0" y="0" width="300" height="300" transform="matrix(1.000000, 0.000000, 0.000000, 1.000000, 0.000000, 0.000000)"/></clipPath></defs><g class="frame-container-wrapper"><g class="frame-container-blur"><g class="frame-container-shadows"><g clip-path="url(#frame-clip-e9597041-7d09-80ff-8006-362dba1683a4-render-1)" fill="none"><g class="fills" id="fills-e9597041-7d09-80ff-8006-362dba1683a4"><rect rx="0" ry="0" x="0" y="0" width="300" height="300" transform="matrix(1.000000, 0.000000, 0.000000, 1.000000, 0.000000, 0.000000)" class="frame-background"/></g><g class="frame-children"><g id="shape-d2793bd2-6e19-8075-8006-43af9ed1b133"><defs><filter id="filter-render-2" x="-0.016409146361384835" y="-0.017112384221056487" width="1.0328182927227696" height="1.034224768442113" filterUnits="objectBoundingBox" color-interpolation-filters="sRGB"><feFlood flood-opacity="0" result="BackgroundImageFix"/><feBlend mode="normal" in="SourceGraphic" in2="BackgroundImageFix" result="shape"/><feColorMatrix in="SourceAlpha" type="matrix" values="0 0 0 0 0 0 0 0 0 0 0 0 0 0 0 0 0 0 127 0" result="hardAlpha"/><feOffset dx="4" dy="4"/><feGaussianBlur stdDeviation="10"/><feComposite in2="hardAlpha" operator="arithmetic" k2="-1" k3="1"/><feColorMatrix type="matrix" values="0 0 0 0 0.5215686274509804 0 0 0 0 0.43529411764705883 0 0 0 0 0.7568627450980392 0 0 0 0.5944444444444444 0"/><feBlend mode="normal" in2="shape" result="filter_c2b2c5b6-332f-803a-8006-4352db6de4d4"/></filter><filter id="filter-shadow-render-2" x="-0.016409146361384835" y="-0.017112384221056487" width="1.0328182927227696" height="1.034224768442113" filterUnits="objectBoundingBox" color-interpolation-filters="sRGB"><feFlood flood-opacity="0" result="BackgroundImageFix"/><feBlend mode="normal" in="SourceGraphic" in2="BackgroundImageFix" result="shape"/><feColorMatrix in="SourceAlpha" type="matrix" values="0 0 0 0 0 0 0 0 0 0 0 0 0 0 0 0 0 0 127 0" result="hardAlpha"/><feOffset dx="4" dy="4"/><feGaussianBlur stdDeviation="10"/><feComposite in2="hardAlpha" operator="arithmetic" k2="-1" k3="1"/><feColorMatrix type="matrix" values="0 0 0 0 0.5215686274509804 0 0 0 0 0.43529411764705883 0 0 0 0 0.7568627450980392 0 0 0 0.5944444444444444 0"/><feBlend mode="normal" in2="shape" result="filter_c2b2c5b6-332f-803a-8006-4352db6de4d4"/></filter><radialGradient id="fill-color-gradient-render-2-0" cx="0.503222603173621" cy="0.9989346541920388" r="0.8100156794916266" gradientTransform="matrix(0.013779, 1.072837, -0.999918, 0.012842, 1.495141, 0.446230)"><stop offset="0.22" stop-color="#654ea3" stop-opacity="1"/><stop offset="1" stop-color="#eaafc8" stop-opacity="1"/></radialGradient><pattern patternUnits="userSpaceOnUse" x="28.11719131190523" y="36.208333333333655" width="243.7664892436503" height="233.74884226115438" patternTransform="matrix(1.000000, 0.000000, 0.000000, 1.000000, 0.000000, 0.000000)" id="fill-0-render-2"><g><rect width="243.7664892436503" height="233.74884226115438" style="fill: url(&quot;#fill-color-gradient-render-2-0&quot;);"/></g></pattern></defs><g class="fills" id="fills-d2793bd2-6e19-8075-8006-43af9ed1b133"><path d="M150.000,57.827C145.872,51.069,140.286,45.622,133.775,42.002C128.225,38.787,122.225,37.455,115.400,36.818C108.750,36.208,100.563,36.208,90.400,36.208L57.500,36.208C49.163,36.208,40.788,37.752,34.963,44.609C29.200,51.381,28.125,60.759,28.125,69.500L28.125,195.399C28.100,198.856,28.075,203.956,29.075,208.659C30.363,214.708,33.450,220.942,40.075,224.753C42.950,226.424,45.862,226.977,48.512,227.232C50.988,227.458,53.938,227.458,57.138,227.458L92.888,227.458C106.213,227.458,114.312,230.688,120.875,236.185C127.913,242.093,133.950,251.202,142.200,265.227C143.939,268.182,146.866,269.957,150.000,269.957C153.134,269.957,156.061,268.182,157.800,265.227C166.050,251.202,172.100,242.093,179.125,236.185C185.688,230.688,193.788,227.458,207.125,227.458L242.850,227.458C246.062,227.458,249.012,227.458,251.475,227.232C254.412,227.040,257.287,226.198,259.938,224.753C266.550,220.942,269.650,214.694,270.938,208.659C271.938,203.956,271.900,198.842,271.875,195.385L271.875,69.500C271.875,60.759,270.800,51.367,265.037,44.609C259.200,37.752,250.825,36.208,242.500,36.208L209.600,36.208C199.438,36.208,191.238,36.208,184.600,36.818C177.775,37.455,171.763,38.801,166.225,42.002C159.714,45.622,154.128,51.069,150.000,57.827Z" filter="url(#filter-render-2)" fill="url(#fill-0-render-2)"/></g><g id="strokes-bd4747ac-5afe-80b4-8006-43b1a85350d1-d2793bd2-6e19-8075-8006-43af9ed1b133" class="strokes"><g class="stroke-shape"><path d="M150.000,57.827C145.872,51.069,140.286,45.622,133.775,42.002C128.225,38.787,122.225,37.455,115.400,36.818C108.750,36.208,100.563,36.208,90.400,36.208L57.500,36.208C49.163,36.208,40.788,37.752,34.963,44.609C29.200,51.381,28.125,60.759,28.125,69.500L28.125,195.399C28.100,198.856,28.075,203.956,29.075,208.659C30.363,214.708,33.450,220.942,40.075,224.753C42.950,226.424,45.862,226.977,48.512,227.232C50.988,227.458,53.938,227.458,57.138,227.458L92.888,227.458C106.213,227.458,114.312,230.688,120.875,236.185C127.913,242.093,133.950,251.202,142.200,265.227C143.939,268.182,146.866,269.957,150.000,269.957C153.134,269.957,156.061,268.182,157.800,265.227C166.050,251.202,172.100,242.093,179.125,236.185C185.688,230.688,193.788,227.458,207.125,227.458L242.850,227.458C246.062,227.458,249.012,227.458,251.475,227.232C254.412,227.040,257.287,226.198,259.938,224.753C266.550,220.942,269.650,214.694,270.938,208.659C271.938,203.956,271.900,198.842,271.875,195.385L271.875,69.500C271.875,60.759,270.800,51.367,265.037,44.609C259.200,37.752,250.825,36.208,242.500,36.208L209.600,36.208C199.438,36.208,191.238,36.208,184.600,36.818C177.775,37.455,171.763,38.801,166.225,42.002C159.714,45.622,154.128,51.069,150.000,57.827Z" style="fill: none; stroke-width: 3; stroke: rgb(255, 255, 255); stroke-opacity: 0.5;"/></g></g></g><g id="shape-d2793bd2-6e19-8075-8006-43af8c4f62cf" rx="0" ry="0"><g clip-path="url(#render-3-e9597041-7d09-80ff-8006-362e1b3894ed-clip)"><g mask="url(#render-3-e9597041-7d09-80ff-8006-362e1b3894ed-mask)"><defs><filter id="render-3-e9597041-7d09-80ff-8006-362e1b3894ed-filter"><feFlood flood-color="white" result="FloodResult"/><feComposite in="FloodResult" in2="SourceGraphic" operator="in" result="comp"/></filter><clipPath id="render-3-e9597041-7d09-80ff-8006-362e1b3894ed-clip" class="mask-clip-path"><polyline points="28.11719131190526,36.20833333333363 271.88368055555554,36.20833333333363 271.88368055555554,269.957175594488 28.11719131190526,269.957175594488"/></clipPath><mask width="243.76648924365028" maskUnits="userSpaceOnUse" height="233.74884226115435" class="mask-shape" x="28.11719131190526" id="render-3-e9597041-7d09-80ff-8006-362e1b3894ed-mask" data-old-y="36.20833333333363" data-old-width="243.76648924365028" data-old-x="28.11719131190526" y="36.20833333333363" data-old-height="233.74884226115435"><g filter="url(#render-3-e9597041-7d09-80ff-8006-362e1b3894ed-filter)"><g id="shape-e9597041-7d09-80ff-8006-362e1b3894ed"><defs><linearGradient id="fill-color-gradient-render-4-0" x1="0.5" y1="0" x2="0.5" y2="1" gradientTransform=""><stop offset="0" stop-color="#eaafc8" stop-opacity="1"/><stop offset="1" stop-color="#654ea3" stop-opacity="1"/></linearGradient><pattern patternUnits="userSpaceOnUse" x="28.11719131190523" y="36.208333333333655" width="243.7664892436503" height="233.74884226115438" patternTransform="matrix(1.000000, 0.000000, 0.000000, 1.000000, 0.000000, 0.000000)" id="fill-0-render-4"><g><rect width="243.7664892436503" height="233.74884226115438" style="fill: url(&quot;#fill-color-gradient-render-4-0&quot;);"/></g></pattern></defs><g class="fills" id="fills-e9597041-7d09-80ff-8006-362e1b3894ed"><path d="M150.000,57.827C145.872,51.069,140.286,45.622,133.775,42.002C128.225,38.787,122.225,37.455,115.400,36.818C108.750,36.208,100.563,36.208,90.400,36.208L57.500,36.208C49.163,36.208,40.788,37.752,34.963,44.609C29.200,51.381,28.125,60.759,28.125,69.500L28.125,195.399C28.100,198.856,28.075,203.956,29.075,208.659C30.363,214.708,33.450,220.942,40.075,224.753C42.950,226.424,45.862,226.977,48.512,227.232C50.988,227.458,53.938,227.458,57.138,227.458L92.888,227.458C106.213,227.458,114.312,230.688,120.875,236.185C127.913,242.093,133.950,251.202,142.200,265.227C143.939,268.182,146.866,269.957,150.000,269.957C153.134,269.957,156.061,268.182,157.800,265.227C166.050,251.202,172.100,242.093,179.125,236.185C185.688,230.688,193.788,227.458,207.125,227.458L242.850,227.458C246.062,227.458,249.012,227.458,251.475,227.232C254.412,227.040,257.287,226.198,259.938,224.753C266.550,220.942,269.650,214.694,270.938,208.659C271.938,203.956,271.900,198.842,271.875,195.385L271.875,69.500C271.875,60.759,270.800,51.367,265.037,44.609C259.200,37.752,250.825,36.208,242.500,36.208L209.600,36.208C199.438,36.208,191.238,36.208,184.600,36.818C177.775,37.455,171.763,38.801,166.225,42.002C159.714,45.622,154.128,51.069,150.000,57.827Z" fill="url(#fill-0-render-4)"/></g></g></g></mask></defs><g id="shape-d2793bd2-6e19-8075-8006-43af5fdd4e66"><defs><linearGradient id="fill-color-gradient-render-5-0" x1="0.688766380295368" y1="0.5977316317474765" x2="0.4738744316407887" y2="0.993910772128464" gradientTransform=""><stop offset="0" stop-color="#ffffff" stop-opacity="0.34444444444444444"/><stop offset="1" stop-color="#ffffff" stop-opacity="0.07222222222222222"/></linearGradient><pattern patternUnits="userSpaceOnUse" x="-112.36527908661586" y="-107.22905248602555" width="382.0000000000001" height="263.0000000000001" id="fill-0-render-5"><g><rect width="382.0000000000001" height="263.0000000000001" style="fill: url(&quot;#fill-color-gradient-render-5-0&quot;);"/></g></pattern></defs><g class="fills" id="fills-d2793bd2-6e19-8075-8006-43af5fdd4e66"><rect rx="0" ry="0" x="-112.36527908661586" y="-107.22905248602555" transform="matrix(0.796123, -0.605135, 0.605135, 0.796123, 1.344623, 52.532918)" width="382.0000000000001" height="263.0000000000001" fill="url(#fill-0-render-5)"/></g></g></g></g></g><g id="shape-e9597041-7d09-80ff-8006-36306c0cdeac"><defs><filter id="filter-render-6" x="0" y="0" width="1" height="1" filterUnits="objectBoundingBox" color-interpolation-filters="sRGB"><feFlood flood-opacity="0" result="BackgroundImageFix"/><feBlend mode="normal" in="SourceGraphic" in2="BackgroundImageFix" result="shape"/><feColorMatrix in="SourceAlpha" type="matrix" values="0 0 0 0 0 0 0 0 0 0 0 0 0 0 0 0 0 0 127 0" result="hardAlpha"/><feOffset dx="4" dy="4"/><feGaussianBlur stdDeviation="2"/><feComposite in2="hardAlpha" operator="arithmetic" k2="-1" k3="1"/><feColorMatrix type="matrix" values="0 0 0 0 0 0 0 0 0 0 0 0 0 0 0 0 0 0 0.2 0"/><feBlend mode="normal" in2="shape" result="filter_e9597041-7d09-80ff-8006-3630f1eb7ede"/></filter><filter id="filter-shadow-render-6" x="0" y="0" width="1" height="1" filterUnits="objectBoundingBox" color-interpolation-filters="sRGB"><feFlood flood-opacity="0" result="BackgroundImageFix"/><feBlend mode="normal" in="SourceGraphic" in2="BackgroundImageFix" result="shape"/><feColorMatrix in="SourceAlpha" type="matrix" values="0 0 0 0 0 0 0 0 0 0 0 0 0 0 0 0 0 0 127 0" result="hardAlpha"/><feOffset dx="4" dy="4"/><feGaussianBlur stdDeviation="2"/><feComposite in2="hardAlpha" operator="arithmetic" k2="-1" k3="1"/><feColorMatrix type="matrix" values="0 0 0 0 0 0 0 0 0 0 0 0 0 0 0 0 0 0 0.2 0"/><feBlend mode="normal" in2="shape" result="filter_e9597041-7d09-80ff-8006-3630f1eb7ede"/></filter></defs><g width="90" height="150" class="text-container" x="105" transform="matrix(1.000000, 0.000000, 0.000000, 1.000000, 0.000000, 0.000000)" ry="0" rx="0" filter="url(#filter-render-6)" y="60"><defs><linearGradient id="fill-color-gradient-render-6-0-0" x1="0.5001736714136853" y1="0.03125" x2="0.5001736714136853" y2="0.96875" gradientTransform=""><stop offset="0" stop-color="#ffffff" stop-opacity="1"/><stop offset="1" stop-color="#ffffff" stop-opacity="1"/></linearGradient><pattern patternUnits="userSpaceOnUse" x="105" y="60" width="89.96875" height="160" id="fill-0-render-6-0"><g><rect width="89.96875" height="160" style="fill: url(&quot;#fill-color-gradient-render-6-0-0&quot;);"/></g></pattern></defs><g class="fills" id="fills-e9597041-7d09-80ff-8006-36306c0cdeac"><text x="105" y="215" dominant-baseline="ideographic" textLength="89.96875" lengthAdjust="spacingAndGlyphs" fill="url(#fill-0-render-6-0)" style="text-transform: none; font-family: &quot;Allerta Stencil&quot;; letter-spacing: normal; font-style: normal; font-weight: 400; white-space: pre; font-size: 125px; text-decoration: none solid rgba(0, 0, 0, 0); direction: ltr;">U</text></g></g></g></g></g></g></g></g></g></svg>